<?xml version="1.0" standalone="no"?>
<svg version="1.0" xmlns="http://www.w3.org/2000/svg"
 width="1024.000000pt" height="1024.000000pt" viewBox="0 0 1024.000000 1024.000000"
 preserveAspectRatio="xMidYMid meet">

<g transform="translate(0.000000,1024.000000) scale(0.100000,-0.100000)"
fill="#000000" stroke="none">
<path d="M5 10228 c-3 -7 -4 -2310 -3 -5118 l3 -5105 5115 0 5115 0 0 5115 0
5115 -5113 3 c-4085 2 -5114 0 -5117 -10z m2453 -4264 c258 -53 441 -224 513
-479 22 -77 23 -98 27 -542 3 -410 2 -465 -13 -493 -33 -64 -126 -77 -176 -24
l-24 26 -6 456 c-5 388 -8 466 -23 516 -63 220 -243 346 -496 346 -155 0 -279
-49 -381 -150 -48 -48 -72 -81 -90 -125 -24 -60 -24 -62 -29 -552 l-5 -493
-28 -27 c-23 -23 -36 -28 -78 -28 -45 0 -54 4 -80 33 l-29 32 0 711 c0 614 2
714 15 739 19 37 45 51 94 52 77 1 111 -43 111 -143 l0 -62 45 42 c87 80 204
141 319 166 85 19 242 18 334 -1z m1897 2 c317 -57 556 -286 632 -605 20 -86
31 -822 13 -889 -19 -71 -93 -102 -161 -66 -43 22 -59 68 -59 171 l0 87 -62
-63 c-81 -84 -191 -155 -292 -187 -107 -36 -293 -44 -412 -20 -278 57 -500
272 -580 561 -26 96 -27 350 -1 445 40 150 139 302 260 400 64 52 183 118 251
140 121 39 281 49 411 26z m1950 0 c317 -57 556 -286 632 -605 20 -86 31 -822
13 -889 -19 -71 -93 -102 -161 -66 -43 22 -59 68 -59 171 l0 87 -62 -63 c-81
-84 -191 -155 -292 -187 -107 -36 -293 -44 -412 -20 -278 57 -500 272 -580
561 -26 96 -27 350 -1 445 40 150 139 302 260 400 64 52 183 118 251 140 121
39 281 49 411 26z m1791 -1 c131 -23 256 -86 344 -174 76 -77 91 -112 65 -161
-20 -38 -56 -53 -112 -47 -35 4 -54 15 -105 62 -108 101 -238 143 -403 132
-226 -14 -358 -158 -282 -307 44 -89 146 -137 378 -180 306 -56 467 -145 540
-297 69 -144 40 -315 -74 -433 -126 -132 -296 -186 -549 -177 -158 5 -266 30
-385 89 -83 40 -174 115 -196 160 -16 33 -16 40 -4 71 20 47 61 77 108 77 31
0 48 -8 89 -45 72 -64 118 -91 207 -122 72 -26 89 -28 233 -27 138 0 162 3
214 23 150 59 219 202 152 315 -51 87 -149 132 -395 180 -71 14 -159 35 -197
47 -197 61 -322 177 -355 327 -14 67 2 177 37 246 97 195 381 294 690 241z"/>
<path d="M4093 5766 c-305 -58 -506 -351 -463 -674 24 -183 112 -324 263 -423
86 -56 165 -80 282 -86 177 -9 324 45 440 163 131 132 191 318 165 512 -39
295 -248 496 -536 516 -48 3 -107 0 -151 -8z"/>
<path d="M6043 5766 c-305 -58 -506 -351 -463 -674 24 -183 112 -324 263 -423
86 -56 165 -80 282 -86 177 -9 324 45 440 163 131 132 191 318 165 512 -39
295 -248 496 -536 516 -48 3 -107 0 -151 -8z"/>
</g>
</svg>
