<?xml version="1.0" standalone="no"?>
<!DOCTYPE svg PUBLIC "-//W3C//DTD SVG 20010904//EN"
 "http://www.w3.org/TR/2001/REC-SVG-20010904/DTD/svg10.dtd">
<svg version="1.0" xmlns="http://www.w3.org/2000/svg"
     style="background-color: rgb(255, 255, 255);"
 width="383.000000pt" height="132.000000pt" viewBox="0 0 383.000000 132.000000"
 preserveAspectRatio="xMidYMid meet">
<metadata>
Created by potrace 1.16, written by Peter Selinger 2001-2019
</metadata>
<g transform="translate(0.000000,132.000000) scale(0.100000,-0.100000)"
fill="#525df9" stroke="none">
<path d="M291 1290 c-148 -54 -256 -182 -281 -335 -13 -78 -13 -512 0 -590 22
-134 114 -257 239 -318 l66 -32 345 0 345 0 66 32 c86 42 178 138 210 220 23
56 24 70 27 371 3 340 -1 377 -54 468 -36 62 -116 131 -192 167 l-67 32 -325
2 c-302 3 -329 1 -379 -17z m460 -242 c88 -29 157 -103 181 -191 11 -41 10
-49 -4 -63 -28 -28 -63 -11 -77 38 -25 81 -77 127 -163 143 -71 14 -162 -35
-198 -105 -18 -35 -20 -59 -20 -210 0 -192 9 -226 72 -273 113 -86 265 -37
310 98 16 46 40 65 66 49 36 -23 22 -90 -37 -171 -20 -28 -50 -51 -95 -73 -60
-30 -72 -32 -138 -28 -87 6 -139 30 -191 87 -69 76 -72 87 -75 287 -2 109 1
197 7 221 21 77 100 161 178 189 47 16 139 18 184 2z m-20 -161 c41 -27 58
-69 39 -91 -18 -23 -43 -20 -70 9 -27 29 -46 31 -72 8 -14 -13 -18 -31 -18
-94 0 -67 -3 -80 -19 -89 -25 -13 -27 -13 -45 6 -23 23 -22 158 2 202 37 70
119 92 183 49z"/>
<path d="M1766 935 c-59 -21 -108 -66 -141 -130 -25 -50 -30 -70 -29 -129 1
-167 107 -276 270 -276 93 0 160 32 203 97 42 63 41 83 -4 83 -28 0 -37 -5
-50 -29 -33 -66 -111 -99 -191 -81 -100 23 -147 88 -148 205 -2 128 68 205
184 205 69 0 118 -23 149 -72 20 -31 30 -38 58 -38 37 0 40 8 17 56 -22 46
-85 100 -131 113 -52 15 -140 13 -187 -4z"/>
<path d="M2281 782 c-36 -18 -65 -52 -75 -88 -6 -18 -3 -20 24 -16 17 2 44 17
60 33 50 50 130 32 145 -33 7 -29 2 -31 -107 -44 -31 -3 -70 -15 -88 -25 -69
-43 -73 -148 -7 -190 42 -27 125 -22 168 10 l30 22 30 -25 c46 -39 99 -33 99
10 0 19 -5 24 -24 24 -31 0 -36 20 -36 148 0 123 -12 152 -70 176 -52 21 -106
20 -149 -2z m147 -234 c-3 -38 -7 -45 -43 -65 -54 -31 -100 -30 -121 2 -32 49
3 85 96 96 30 3 59 7 63 8 5 0 7 -18 5 -41z"/>
<path d="M2767 776 c-44 -22 -47 -22 -47 -5 0 15 -8 19 -35 19 l-35 0 0 -195
0 -195 35 0 35 0 0 139 0 140 36 28 c48 36 108 38 135 4 17 -20 19 -41 19
-167 l0 -144 35 0 35 0 0 150 c0 177 -10 213 -64 235 -50 21 -96 19 -149 -9z"/>
<path d="M3187 776 c-44 -22 -47 -22 -47 -5 0 15 -8 19 -35 19 l-35 0 0 -195
0 -195 35 0 35 0 0 133 c0 133 0 133 28 160 65 62 143 57 162 -12 5 -20 10
-91 10 -158 l0 -123 35 0 35 0 -1 143 c0 82 -5 157 -12 177 -26 76 -121 101
-210 56z"/>
<path d="M3460 786 c0 -3 33 -86 74 -185 l75 -180 -34 -83 -33 -83 30 -3 c17
-2 34 0 38 5 7 8 210 517 210 528 0 3 -15 5 -34 5 l-33 0 -52 -135 c-29 -74
-57 -133 -62 -130 -5 4 -9 12 -9 18 0 7 -23 64 -50 127 -48 114 -49 115 -84
118 -20 2 -36 1 -36 -2z"/>
</g>
</svg>
