<svg width="1275px" height="261px" viewBox="0 0 1275 261" version="1.1" xmlns="http://www.w3.org/2000/svg" xmlns:xlink="http://www.w3.org/1999/xlink">
    <g id="Page-1" stroke="none" stroke-width="1" fill="none" fill-rule="evenodd">
        <g id="Desktop-HD" transform="translate(-82.000000, -381.000000)">
            <g id="Page-1" transform="translate(81.000000, 381.000000)">
                <path d="M164.072025,217.262237 C169.917345,217.262237 174.67264,222.009129 174.67264,227.841541 C174.67264,233.671375 169.917345,238.418267 164.072025,238.418267 C158.229288,238.418267 153.473993,233.671375 153.473993,227.841541 C153.473993,222.009129 158.229288,217.262237 164.072025,217.262237 M330.509952,151.736561 C324.664632,151.736561 319.909337,146.989669 319.909337,141.157257 C319.909337,135.324845 324.664632,130.577953 330.509952,130.577953 C336.350106,130.577953 341.105402,135.324845 341.105402,141.157257 C341.105402,146.989669 336.350106,151.736561 330.509952,151.736561 M330.509952,108.395708 C312.413483,108.395708 297.687823,123.095345 297.687823,141.157257 C297.687823,144.676816 298.274163,148.178325 299.428762,151.581855 L191.012673,209.191747 C184.852228,200.332257 174.868948,195.077414 164.072025,195.077414 C151.562576,195.077414 140.158649,202.222247 134.641369,213.392012 L37.2391749,162.132796 C26.951102,156.730982 19.2486081,139.813894 20.0648348,124.415502 C20.4884462,116.383688 23.2703328,110.149041 27.5038632,107.740786 C30.1927619,106.219512 33.4266729,106.351012 36.8543085,108.1456 L37.5052235,108.485953 C63.309353,122.058816 147.775904,166.469718 151.330106,168.117335 C156.818972,170.651933 159.872074,171.678149 169.219936,167.253561 L343.82013,76.6088059 C346.377296,75.6444725 349.360657,73.1975412 349.360657,69.4820216 C349.360657,64.3251588 344.021604,62.2907765 344.006106,62.2907765 C334.079653,57.5387275 318.811564,50.4042078 303.925758,43.4476 C272.103248,28.5726294 236.034292,11.7148451 220.195361,3.43550196 C206.520981,-3.70933137 195.512252,2.31388431 193.549175,3.53090392 L189.736673,5.41573725 C118.448568,40.6061686 23.0456121,87.7708353 17.6161547,91.0712275 C7.8885919,96.9784137 1.86504534,108.746375 1.08498057,123.358345 C-0.131610526,146.520394 11.7062599,170.667404 28.6248834,179.526894 L131.619264,232.549757 C133.938794,248.590178 147.770738,260.60309 164.072025,260.60309 C182.0006,260.60309 196.620357,246.174188 196.888989,228.339178 L310.323839,166.972512 C316.076171,171.458982 323.20524,173.918806 330.509952,173.918806 C348.603839,173.918806 363.329499,159.221747 363.329499,141.157257 C363.329499,123.095345 348.603839,108.395708 330.509952,108.395708" id="Fill-1" fill="#3681FC"></path>
                <path d="M579.646628,195.850943 C573.517178,202.650267 564.549016,208.126855 552.744725,212.280708 C540.940433,216.434561 527.999623,218.512776 513.924879,218.512776 C492.281955,218.512776 474.988798,211.904257 462.050571,198.684639 C449.109761,185.465022 442.184749,167.070492 441.278117,143.501051 L441.164466,129.224276 C441.164466,112.982737 444.03934,98.8013647 449.791672,86.6775804 C455.541421,74.5537961 463.770846,65.2224529 474.479947,58.6887078 C485.186466,52.1575412 497.57968,48.8880902 511.654425,48.8880902 C532.23832,48.8880902 548.221899,53.591149 559.612911,62.9946882 C570.998757,72.4008059 577.642223,86.4326294 579.532976,105.090159 L541.167737,105.090159 C539.803915,95.8748451 536.854134,89.3024235 532.313227,85.3728941 C527.77232,81.4459431 521.34066,79.4811784 513.015664,79.4811784 C503.027219,79.4811784 495.309227,83.7123843 489.859105,92.1722176 C484.411567,100.632051 481.650344,112.719737 481.572854,128.432698 L481.572854,138.403492 C481.572854,154.871933 484.390903,167.240669 490.029583,175.512276 C495.66568,183.783884 504.540854,187.919688 516.647356,187.919688 C527.015502,187.919688 534.733494,185.614571 539.803915,181.006914 L539.803915,155.400512 L512.109032,155.400512 L512.109032,128.092345 L579.646628,128.092345 L579.646628,195.850943 Z" id="Fill-4" fill="#000000"></path>
                <path d="M603.029198,216.247882 L641.39702,216.247882 L641.39702,93.646049 L603.029198,93.646049 L603.029198,216.247882 Z M600.758745,61.918451 C600.758745,56.4470196 602.726988,51.9631275 606.663474,48.4667745 C610.597377,44.9704216 615.706543,43.2222451 621.985806,43.2222451 C628.267652,43.2222451 633.374235,44.9704216 637.310721,48.4667745 C641.244623,51.9631275 643.212866,56.4470196 643.212866,61.918451 C643.212866,67.3924608 641.244623,71.8763529 637.310721,75.3701275 C633.374235,78.8664804 628.267652,80.6146569 621.985806,80.6146569 C615.706543,80.6146569 610.597377,78.8664804 606.663474,75.3701275 C602.726988,71.8763529 600.758745,67.3924608 600.758745,61.918451 L600.758745,61.918451 Z" id="Fill-6" fill="#000000"></path>
                <path d="M709.502874,63.1648647 L709.502874,93.644502 L729.707069,93.644502 L729.707069,120.158512 L709.502874,120.158512 L709.502874,176.247129 C709.502874,180.857365 710.334599,184.067512 712.000632,185.880149 C713.664081,187.692786 716.957401,188.597816 721.875425,188.597816 C725.659514,188.597816 728.836599,188.373492 731.409263,187.919688 L731.409263,215.227855 C724.522996,217.416943 717.334518,218.512776 709.84383,218.512776 C696.675717,218.512776 686.95332,215.41608 680.671474,209.222688 C674.389628,203.029296 671.248704,193.623178 671.248704,181.006914 L671.248704,120.158512 L655.585417,120.158512 L655.585417,93.644502 L671.248704,93.644502 L671.248704,63.1648647 L709.502874,63.1648647 Z" id="Fill-8" fill="#000000"></path>
                <path d="M786.349587,146.107845 L786.349587,185.653247 L812.455927,185.653247 C819.646988,185.653247 825.169433,184.010786 829.028429,180.723286 C832.890008,177.438365 834.819506,172.81008 834.819506,166.84359 C834.819506,153.095394 827.969401,146.18262 814.274356,146.107845 L786.349587,146.107845 Z M786.349587,120.047639 L807.12204,120.047639 C815.824154,119.972865 822.02851,118.381973 825.737692,115.274963 C829.446874,112.167953 831.298883,107.583502 831.298883,101.52161 C831.298883,94.5521098 829.294478,89.5319039 825.283085,86.4635706 C821.274275,83.3952373 814.80387,81.8610706 805.874453,81.8610706 L786.349587,81.8610706 L786.349587,120.047639 Z M746.506874,216.246335 L746.506874,51.2679824 L805.874453,51.2679824 C827.137676,51.2679824 843.312397,55.1588353 854.398615,62.9379627 C865.484834,70.7196686 871.027943,82.013198 871.027943,96.818551 C871.027943,105.355737 869.0597,112.642384 865.125798,118.686227 C861.191895,124.730071 855.400818,129.188178 847.757733,132.057973 C856.384939,134.324414 863.007741,138.55562 867.623555,144.749012 C872.239368,150.942404 874.548567,158.497208 874.548567,167.410845 C874.548567,183.575031 869.418737,195.719443 859.164243,203.838924 C848.912332,211.960982 833.721733,216.096786 813.592445,216.246335 L746.506874,216.246335 Z" id="Fill-9" fill="#000000"></path>
                <path d="M928.124294,156.192348 C928.124294,167.524554 929.901395,175.834838 933.458181,181.120623 C937.014966,186.408985 942.276529,189.051877 949.237703,189.051877 C962.85784,189.051877 969.821598,178.591181 970.123808,157.664632 L970.123808,153.812456 C970.123808,131.831328 963.085144,120.839475 949.010399,120.839475 C936.221986,120.839475 929.296974,130.320368 928.237946,149.279574 L928.124294,156.192348 Z M889.870124,153.812456 C889.870124,141.575221 892.254229,130.67877 897.02244,121.123103 C901.79065,111.567436 908.638172,104.221485 917.567589,99.08525 C926.497006,93.9464363 936.978804,91.3783186 949.010399,91.3783186 C967.398747,91.3783186 981.889355,97.0637598 992.484804,108.432064 C1003.08025,119.802946 1008.3754,135.268377 1008.3754,154.833515 L1008.3754,156.192348 C1008.3754,175.303681 1003.05959,190.467436 992.430561,201.686191 C981.793784,212.904946 967.398747,218.513034 949.237703,218.513034 C931.755986,218.513034 917.719986,213.283975 907.124537,202.818123 C896.53167,192.357426 890.818083,178.173475 889.983776,160.271426 L889.870124,153.812456 Z" id="Fill-10" fill="#000000"></path>
                <path d="M1058.66142,156.192348 C1058.66142,167.524554 1060.43852,175.834838 1063.99531,181.120623 C1067.55209,186.408985 1072.81365,189.051877 1079.77483,189.051877 C1093.39497,189.051877 1100.35872,178.591181 1100.66093,157.664632 L1100.66093,153.812456 C1100.66093,131.831328 1093.62227,120.839475 1079.54752,120.839475 C1066.75911,120.839475 1059.8341,130.320368 1058.77507,149.279574 L1058.66142,156.192348 Z M1020.40725,153.812456 C1020.40725,141.575221 1022.79135,130.67877 1027.55956,121.123103 C1032.32777,111.567436 1039.1753,104.221485 1048.10471,99.08525 C1057.03413,93.9464363 1067.51593,91.3783186 1079.54752,91.3783186 C1097.93587,91.3783186 1112.42648,97.0637598 1123.02193,108.432064 C1133.61738,119.802946 1138.91252,135.268377 1138.91252,154.833515 L1138.91252,156.192348 C1138.91252,175.303681 1133.59671,190.467436 1122.96769,201.686191 C1112.33091,212.904946 1097.93587,218.513034 1079.77483,218.513034 C1062.29311,218.513034 1048.25711,213.283975 1037.66166,202.818123 C1027.0688,192.357426 1021.35521,178.173475 1020.5209,160.271426 L1020.40725,153.812456 Z" id="Fill-11" fill="#000000"></path>
                <polygon id="Fill-12" fill="#000000" points="1205.08991 170.582831 1194.3059 181.347782 1194.3059 216.246851 1156.05431 216.246851 1156.05431 42.0892824 1194.3059 42.0892824 1194.3059 134.549253 1198.1649 129.451694 1226.9963 93.6450176 1272.85481 93.6450176 1229.83501 144.068822 1275.69352 216.246851 1231.87816 216.246851"></polygon>
            </g>
        </g>
    </g>
</svg>
